<svg data-v-bf17a7d6="" xmlns="http://www.w3.org/2000/svg" fill="none" viewBox="0 0 172 172"><path fill="#F8BBD0" d="M128.5 71.306h9.117L120.75 69 103 66.5l-17.5 9-23-9-20 2.5v6.5l20 23.5 9.5 5.5 2.16 16.5L82 140l3.5 3 13.574-17.5 2.426-21 19.25-15 7.75-18.194Z"></path><path fill="#E91E63" d="M133.085 66.865a47.54 47.54 0 0 0-66.823-50.178 47.543 47.543 0 0 0-27.239 50.178A47.515 47.515 0 1 0 86 147.813a47.514 47.514 0 1 0 47.085-80.948Zm-89.252-6.181c0-23.288 18.88-42.167 42.167-42.167 23.288 0 42.167 18.879 42.167 42.167 0 1.526-.08 3.051-.242 4.569a46.735 46.735 0 0 0-11.53-1.479A47.3 47.3 0 0 0 86 74.794a47.3 47.3 0 0 0-30.396-11.02c-3.89.011-7.762.508-11.529 1.479a42.986 42.986 0 0 1-.242-4.57v.001Zm53.938 50.632a42.06 42.06 0 0 1-11.77 29.186 42.06 42.06 0 0 1-11.772-29.186 43 43 0 0 1 .242-4.569 45.697 45.697 0 0 0 23.058 0c.162 1.518.243 3.043.242 4.57v-.001Zm-11.77-8.465a41.572 41.572 0 0 1-10.563-1.398A42.167 42.167 0 0 1 86 82.157a42.167 42.167 0 0 1 10.562 19.296A41.573 41.573 0 0 1 86 102.851Zm-15.696-3.064a42.274 42.274 0 0 1-25.262-29.24 41.601 41.601 0 0 1 37.006 8.062 47.622 47.622 0 0 0-11.744 21.178Zm19.646-21.258a41.6 41.6 0 0 1 37.007-8.063 42.272 42.272 0 0 1-25.263 29.24A47.622 47.622 0 0 0 89.951 78.53v-.001Zm-76.513 32.787a42.195 42.195 0 0 1 26.498-39.103 47.622 47.622 0 0 0 29.348 32.922 47.001 47.001 0 0 0 12.765 38.996 42.112 42.112 0 0 1-68.61-32.815Zm102.958 42.194a41.845 41.845 0 0 1-26.445-9.38 47.004 47.004 0 0 0 12.765-38.995 47.624 47.624 0 0 0 29.348-32.922c18.74 7.525 29.514 27.28 25.692 47.11-3.822 19.83-21.166 34.166-41.36 34.187Z"></path></svg>