<svg data-v-bf17a7d6="" xmlns="http://www.w3.org/2000/svg" fill="none" viewBox="0 0 172 172"><path fill="#F8BBD0" d="m116.906 25.867 6.047-6.047 29.227 30.235-4.368 6.383-20.492-17.805-10.414-12.766ZM35.273 41.656l19.82-12.765 23.18-4.703 3.024 31.914-26.203 10.414-19.82-24.86ZM13.438 91.71H47.03l8.735 25.868-22.508 18.477-14.11-18.477-5.71-25.867Zm67.522 35.274 10.75-6.046 15.454-4.032 20.492 21.5-17.468 13.102-18.477 5.711H80.96v-30.235Z"></path><path fill="#E91E63" d="M140.817 68.158a64.304 64.304 0 0 1 4.311 23.218c0 35.598-28.902 64.5-64.5 64.5-35.599 0-64.5-28.902-64.5-64.5 0-35.599 28.901-64.5 64.5-64.5a64.282 64.282 0 0 1 23.217 4.31 2.687 2.687 0 0 0 1.94-5.012A69.607 69.607 0 0 0 80.628 21.5c-38.566 0-69.876 31.31-69.876 69.876 0 38.565 31.31 69.875 69.876 69.875 38.565 0 69.875-31.31 69.875-69.875 0-8.867-1.655-17.35-4.674-25.158a2.687 2.687 0 0 0-5.012 1.94Zm10.458-2.732a74.706 74.706 0 0 1 3.89 15.567 2.687 2.687 0 1 0 5.323-.738 80.09 80.09 0 0 0-4.167-16.684 2.689 2.689 0 0 0-5.046 1.855ZM88.41 16.523a74.709 74.709 0 0 1 18.163 4.2 2.689 2.689 0 0 0 1.855-5.045 80.124 80.124 0 0 0-19.466-4.502 2.688 2.688 0 0 0-2.95 2.398 2.692 2.692 0 0 0 2.399 2.949Zm70.155 77.54a2.688 2.688 0 1 0 0-5.377 2.688 2.688 0 0 0 0 5.376Zm-77.94-77.938a2.687 2.687 0 1 0 0-5.375 2.687 2.687 0 0 0 0 5.375Z"></path><path fill="#E91E63" d="M13.438 88.688h34.937v5.374H13.437v-5.374Zm99.44 0h34.937v5.374h-34.937v-5.374Zm-29.563-64.5v34.937H77.94V24.187h5.375Zm0 99.437v34.937H77.94v-34.937h5.375ZM55.919 70.466 31.222 45.769l3.8-3.8L59.72 66.666l-3.8 3.8Zm70.287 70.287-24.697-24.697 3.8-3.8 24.697 24.697-3.8 3.8Zm-66.489-24.695L35.02 140.755l-3.8-3.8 24.697-24.697 3.8 3.8Z"></path><path fill="#E91E63" d="M109.256 83.984a29.58 29.58 0 0 1 .933 7.392c0 16.316-13.246 29.562-29.563 29.562-16.316 0-29.562-13.246-29.562-29.562 0-16.317 13.246-29.563 29.562-29.563 2.552 0 5.03.324 7.392.933a2.69 2.69 0 0 0 3.273-1.932 2.69 2.69 0 0 0-1.931-3.273 34.92 34.92 0 0 0-8.734-1.103c-19.282 0-34.937 15.655-34.937 34.938 0 19.282 15.655 34.937 34.937 34.937 19.283 0 34.938-15.655 34.938-34.937 0-3.016-.383-5.942-1.103-8.734a2.69 2.69 0 0 0-3.273-1.931 2.69 2.69 0 0 0-1.932 3.273Zm41.802-28.834a7.75 7.75 0 0 0 0-10.954l-23.252-23.253a7.75 7.75 0 0 0-10.955 0l-3.577 3.578a2.688 2.688 0 0 0 0 3.8l30.406 30.406a2.687 2.687 0 0 0 3.801 0l3.577-3.577Zm-3.801-3.8-1.677 1.676-26.605-26.605 1.677-1.677a2.372 2.372 0 0 1 3.353 0l23.252 23.252a2.372 2.372 0 0 1 0 3.353Z"></path><path fill="#E91E63" d="M82.814 73.688a2.692 2.692 0 0 0-4.375 0s-5.415 7.59-8.667 14.418c-1.558 3.273-2.583 6.418-2.583 8.645 0 7.415 6.022 13.437 13.437 13.437 7.416 0 13.438-6.022 13.438-13.437 0-2.228-1.025-5.372-2.584-8.645-3.252-6.828-8.666-14.418-8.666-14.418Zm-2.188 6.344c1.76 2.683 4.225 6.653 6.002 10.385 1.15 2.417 2.06 4.69 2.06 6.334a8.065 8.065 0 0 1-8.062 8.062 8.066 8.066 0 0 1-8.062-8.062c0-1.643.91-3.917 2.06-6.334 1.778-3.732 4.243-7.702 6.002-10.385Zm42.151-46.008 3.8 3.8-19.339 19.34a5.356 5.356 0 0 0-1.564 4.098 2.683 2.683 0 0 1-.782 2.048l-8.385 8.385a2.69 2.69 0 0 0 0 3.8 2.69 2.69 0 0 0 3.8 0l8.385-8.385a2.681 2.681 0 0 1 2.048-.782 5.356 5.356 0 0 0 4.098-1.564l19.339-19.34 3.801 3.8-19.337 19.34a10.7 10.7 0 0 1-6.928 3.126l-7.606 7.605c-3.144 3.147-8.256 3.147-11.4 0-3.148-3.144-3.148-8.256 0-11.4 0 0 7.605-7.606 7.605-7.603a10.708 10.708 0 0 1 3.126-6.931l19.339-19.337Zm8.63-5.679a84.702 84.702 0 0 1 1.892-5.071c1.507-3.65 3.26-6.837 5.015-8.59 5.246-5.245 13.76-5.245 19.003 0 5.246 5.244 5.246 13.758 0 19.004-1.752 1.755-4.94 3.507-8.589 5.015a85.162 85.162 0 0 1-5.072 1.892l-4.257-4.257c2.39-.752 4.935-1.634 7.275-2.602 2.881-1.19 5.459-2.464 6.843-3.848a8.067 8.067 0 0 0 0-11.403 8.066 8.066 0 0 0-11.403 0c-1.384 1.384-2.658 3.961-3.849 6.842-.967 2.341-1.849 4.889-2.601 7.275l-4.257-4.257Z"></path></svg>