<svg data-v-bf17a7d6="" xmlns="http://www.w3.org/2000/svg" viewBox="0 0 172 172"><g fill="none" stroke-miterlimit="10" font-family="none" font-size="none" font-weight="none" style="mix-blend-mode:normal;" text-anchor="none"><path d="M0 172V0h172v172z"></path><path fill="#f8bbd0" d="M26.58 79.093h19.376v15.749H26.58zm0-28.649h19.376v15.75H26.58zm0-28.568h19.376v15.749H26.58zM76.298 125.91h17.28v20.37h-17.28zm29.16 0h17.28v20.37h-17.28zm27.788 0h17.28v20.37h-17.28zM97.53 58.937l14.001 14.002 11.906-10.75-13.814-14.593zM77.158 79.281l14.593 13.25 10.562-10.562-13.437-14.217zm6.155 22.736-13.626-14.19-8.439 7.096.753 15.076h14.297z"></path><path fill="#e91e63" d="M153.188 107.312h-49.531l34.588-34.561a10.75 10.75 0 0 0 0-15.212l-24.886-24.886a10.75 10.75 0 0 0-15.211 0L64.742 66.086V18.813c0-5.938-4.813-10.75-10.75-10.75h-35.18c-5.937 0-10.75 4.812-10.75 10.75V135.61c.015 15.638 12.689 28.312 28.327 28.327h116.799c5.937 0 10.75-4.813 10.75-10.75v-35.126c0-5.937-4.813-10.75-10.75-10.75zm-51.224-70.843a5.375 5.375 0 0 1 7.579 0l24.832 24.887a5.375 5.375 0 0 1 0 7.578l-38.297 38.378H81.512l3.467-3.467a2.687 2.687 0 0 0 0-3.816L70.843 86a2.687 2.687 0 0 0-3.817 0l-2.284 2.311v-14.62zm-37.222 70.843V95.836l4.192-4.22 10.347 10.32-5.375 5.376zm-28.353 51.25c-12.67-.014-22.937-10.281-22.952-22.95v-116.8a5.375 5.375 0 0 1 5.376-5.375h35.179a5.375 5.375 0 0 1 5.375 5.375v116.8c-.015 12.669-10.282 22.936-22.951 22.95zm122.173-5.375a5.375 5.375 0 0 1-5.375 5.375H52.972a28.272 28.272 0 0 0 11.77-22.95v-22.925h88.447a5.375 5.375 0 0 1 5.375 5.375z"></path><path fill="#e91e63" d="M150.688 122.953h-16.824a2.687 2.687 0 0 0-2.687 2.688v19.968a2.687 2.687 0 0 0 2.687 2.687h16.824a2.687 2.687 0 0 0 2.688-2.687V125.64a2.687 2.687 0 0 0-2.688-2.688zm-2.687 19.968h-11.45v-14.593h11.45zm-25.854-19.968h-16.824a2.687 2.687 0 0 0-2.687 2.688v19.968a2.687 2.687 0 0 0 2.687 2.687h16.824a2.687 2.687 0 0 0 2.687-2.687V125.64a2.687 2.687 0 0 0-2.687-2.688zm-2.688 19.968h-11.448v-14.593h11.448zm-25.853-19.968H76.782a2.687 2.687 0 0 0-2.688 2.688v19.968a2.687 2.687 0 0 0 2.688 2.687h16.824a2.687 2.687 0 0 0 2.687-2.687V125.64a2.687 2.687 0 0 0-2.687-2.688zm-2.688 19.968H79.47v-14.593h11.45zm-39.345-8.546c0-8.386-6.798-15.184-15.184-15.184s-15.185 6.798-15.185 15.184 6.799 15.184 15.185 15.184 15.184-6.798 15.184-15.184zm-15.184 9.81c-5.418 0-9.81-4.392-9.81-9.81s4.392-9.81 9.81-9.81c5.417 0 9.81 4.392 9.81 9.81a9.783 9.783 0 0 1-9.81 9.917zM26.418 40.85h19.968a2.687 2.687 0 0 0 2.688-2.688v-16.85a2.687 2.687 0 0 0-2.688-2.688H26.418a2.687 2.687 0 0 0-2.687 2.688v16.85a2.687 2.687 0 0 0 2.687 2.688zM29.106 24h14.593v11.475H29.106zm-2.688 45.418h19.968a2.687 2.687 0 0 0 2.688-2.687V49.907a2.687 2.687 0 0 0-2.688-2.688H26.418a2.687 2.687 0 0 0-2.687 2.688V66.73a2.687 2.687 0 0 0 2.687 2.687zm2.688-16.824h14.593v11.45H29.106zm-2.688 45.419h19.968a2.687 2.687 0 0 0 2.688-2.687V78.475a2.687 2.687 0 0 0-2.688-2.687H26.418a2.687 2.687 0 0 0-2.687 2.687v16.85a2.687 2.687 0 0 0 2.687 2.688zm2.688-16.85h14.593v11.475H29.106zm80.571-5.913a2.687 2.687 0 0 0 3.816 0L125.4 63.344a2.687 2.687 0 0 0 0-3.789l-14.137-14.056a2.687 2.687 0 0 0-3.789 0L95.568 57.405a2.687 2.687 0 0 0 0 3.816zm-.323-24.188 10.347 10.347-8.062 8.063-10.32-10.32zM89.467 95.54c.503.514 1.19.804 1.908.807a2.687 2.687 0 0 0 1.908-.806l11.906-11.906a2.687 2.687 0 0 0 0-3.79L91.053 65.71a2.687 2.687 0 0 0-3.79 0L75.25 77.615a2.687 2.687 0 0 0 0 3.816zm-.323-24.187 10.293 10.4-8.062 8.063-10.32-10.32z"></path></g></svg>