<svg data-v-bf17a7d6="" xmlns="http://www.w3.org/2000/svg" viewBox="0 0 172 172"><g fill="none" stroke-miterlimit="10" font-family="none" font-size="none" font-weight="none" style="mix-blend-mode:normal;" text-anchor="none"><path d="M0 172V0h172v172z"></path><path fill="#f8bbd0" d="M116.013 62.818 107.285 47.7a3.36 3.36 0 0 1 2.909-5.039h17.456a3.36 3.36 0 0 1 2.91 5.04l-8.729 15.117a3.36 3.36 0 0 1-5.818 0zm19.371 9.412v57.11h-32.922V72.23z"></path><path fill="#f8bbd0" d="M168.305 79.393v42.782a7.163 7.163 0 0 1-7.164 7.164h-25.758v-57.11h25.758a7.163 7.163 0 0 1 7.164 7.164z"></path><path fill="#e91e63" d="M53.078 66.513a5.32 5.32 0 0 1-4.655-2.688l-8.728-15.117a5.375 5.375 0 0 1 4.655-8.062h17.456a5.375 5.375 0 0 1 4.655 8.062l-8.728 15.117a5.32 5.32 0 0 1-4.655 2.688zM44.35 44.677a1.344 1.344 0 0 0-1.164 2.016l8.728 15.117a1.344 1.344 0 0 0 2.328 0l8.728-15.117a1.344 1.344 0 0 0-1.164-2.016zm74.572 21.836a5.32 5.32 0 0 1-4.655-2.688l-8.728-15.117a5.375 5.375 0 0 1 4.655-8.062h17.456a5.375 5.375 0 0 1 4.655 8.062l-8.728 15.117a5.32 5.32 0 0 1-4.655 2.688zm-8.728-21.836a1.344 1.344 0 0 0-1.164 2.016l8.728 15.117a1.344 1.344 0 0 0 2.328 0l8.727-15.117a1.344 1.344 0 0 0-1.163-2.016zM3.697 101.38a2.016 2.016 0 0 1-2.016-2.015V96.34a2.016 2.016 0 1 1 4.031 0v3.024a2.016 2.016 0 0 1-2.015 2.016z"></path><path fill="#e91e63" d="M161.14 131.353H10.86a9.188 9.188 0 0 1-9.178-9.178v-16.46a2.016 2.016 0 1 1 4.031 0v16.46a5.152 5.152 0 0 0 5.147 5.147h150.28a5.154 5.154 0 0 0 5.15-5.147V79.393a5.156 5.156 0 0 0-5.15-5.15H10.859a5.154 5.154 0 0 0-5.147 5.15v10.6a2.016 2.016 0 0 1-4.03 0v-10.6a9.19 9.19 0 0 1 9.177-9.18H161.14a9.192 9.192 0 0 1 9.18 9.18v42.782a9.19 9.19 0 0 1-9.18 9.178z"></path><path fill="#e91e63" d="M102.46 131.354H69.54a2.016 2.016 0 0 1-2.017-2.015v-57.11c0-1.113.903-2.015 2.016-2.015h32.922c1.113 0 2.016.902 2.016 2.015v57.11a2.016 2.016 0 0 1-2.016 2.015zm-30.905-4.031h28.89V74.245h-28.89z"></path><path fill="#e91e63" d="M69.54 131.354H36.616a2.016 2.016 0 0 1-2.015-2.015v-57.11c0-1.113.902-2.015 2.015-2.015H69.54c1.113 0 2.016.902 2.016 2.015v57.11a2.016 2.016 0 0 1-2.016 2.015zm-30.907-4.031h28.89V74.245h-28.89zm96.75 4.031H102.46a2.016 2.016 0 0 1-2.016-2.015v-57.11c0-1.113.903-2.015 2.016-2.015h32.922c1.113 0 2.015.902 2.015 2.015v57.11a2.016 2.016 0 0 1-2.015 2.015zm-30.906-4.031h28.89V74.245h-28.89z"></path><path fill="#e91e63" d="M161.141 131.354h-25.758a2.016 2.016 0 0 1-2.016-2.015v-57.11c0-1.113.903-2.015 2.016-2.015h25.758a9.19 9.19 0 0 1 9.18 9.179v42.782a9.19 9.19 0 0 1-9.18 9.18zm-23.743-4.031h23.743a5.154 5.154 0 0 0 5.148-5.148V79.393a5.154 5.154 0 0 0-5.148-5.148h-23.743z"></path></g></svg>