<svg data-v-bf17a7d6="" xmlns="http://www.w3.org/2000/svg" fill="none" viewBox="0 0 172 172"><path fill="#F8BBD0" d="M14.109 15.117h18.813v17.469H14.109zm66.516 67.524h12.766v6.383H80.625zm58.789 56.101h18.813v17.469h-18.813z"></path><path fill="#E91E63" d="m28.776 147.024 45.688-45.687a2.69 2.69 0 0 0 0-3.8 2.688 2.688 0 0 0-3.8 0l-45.688 45.686 3.8 3.801Zm72.563-72.562 45.688-45.688-3.801-3.8L97.539 70.66a2.69 2.69 0 0 0 0 3.801 2.689 2.689 0 0 0 3.8 0Zm2.686 13.438 43-43-3.8-3.8-43 43a2.688 2.688 0 0 0 3.8 3.8Zm-59.122 59.126 43-43a2.69 2.69 0 0 0 0-3.801 2.69 2.69 0 0 0-3.8 0l-43 43.001 3.8 3.8Zm67.185-51.063 34.937-34.937-3.8-3.8-34.938 34.937a2.69 2.69 0 0 0 0 3.8 2.69 2.69 0 0 0 3.801 0Zm-51.062 51.062 34.938-34.938a2.69 2.69 0 0 0 0-3.801 2.69 2.69 0 0 0-3.8 0l-34.938 34.938 3.8 3.801Zm59.124-42.999 26.875-26.875-3.8-3.8-26.875 26.875a2.688 2.688 0 0 0 3.8 3.8Zm-43 43 26.875-26.875a2.69 2.69 0 0 0 0-3.801 2.69 2.69 0 0 0-3.8 0L73.35 143.226l3.8 3.8Zm51.063-34.937 18.812-18.813-3.8-3.8-18.813 18.812a2.69 2.69 0 0 0 0 3.801 2.69 2.69 0 0 0 3.801 0Zm-34.937 34.936 18.813-18.813a2.69 2.69 0 0 0 0-3.801 2.69 2.69 0 0 0-3.8 0l-18.813 18.813 3.8 3.801Zm42.999-26.874 10.75-10.75-3.8-3.801-10.75 10.751a2.688 2.688 0 0 0 3.8 3.8Zm-26.872 26.875 10.75-10.75a2.69 2.69 0 0 0 0-3.801 2.69 2.69 0 0 0-3.8 0l-10.75 10.751 3.8 3.8Zm-12.65-47.588a2.687 2.687 0 1 0 0-5.375 2.687 2.687 0 0 0 0 5.374Zm-21.503-21.5a2.687 2.687 0 1 0 0-5.375 2.687 2.687 0 0 0 0 5.374ZM24.189 10.75c-7.417 0-13.438 6.021-13.438 13.438 0 7.416 6.021 13.437 13.438 13.437 7.416 0 13.437-6.02 13.437-13.437S31.606 10.75 24.19 10.75Zm0 5.375a8.066 8.066 0 0 1 8.062 8.063 8.067 8.067 0 0 1-8.062 8.062 8.066 8.066 0 0 1-8.063-8.062 8.066 8.066 0 0 1 8.063-8.063Z"></path><path fill="#E91E63" d="m33.448 29.649 35.64 35.639a2.69 2.69 0 0 1 0 3.8 2.69 2.69 0 0 1-3.8 0L29.647 33.45a10.857 10.857 0 0 0 3.8-3.8Zm52.553 48.289a8.066 8.066 0 0 0-8.062 8.063A8.067 8.067 0 0 0 86 94.063 8.066 8.066 0 0 0 94.064 86 8.066 8.066 0 0 0 86 77.939Zm0 5.375a2.689 2.689 0 0 1 0 5.375 2.689 2.689 0 0 1 0-5.375Zm61.813 51.063c-7.416 0-13.438 6.021-13.438 13.437 0 7.417 6.022 13.438 13.438 13.438s13.438-6.021 13.438-13.438c0-7.416-6.022-13.437-13.438-13.437Zm0 5.375a8.066 8.066 0 0 1 8.063 8.062 8.067 8.067 0 0 1-8.063 8.063 8.067 8.067 0 0 1-8.063-8.063 8.066 8.066 0 0 1 8.063-8.062Z"></path><path fill="#E91E63" d="m138.551 142.352-35.639-35.639a2.69 2.69 0 0 1 0-3.8 2.69 2.69 0 0 1 3.801 0l35.639 35.639a10.858 10.858 0 0 0-3.801 3.8ZM29.562 33.497v108.941h108.941a10.699 10.699 0 0 0-1.44 5.375H26.875a2.688 2.688 0 0 1-2.688-2.687V34.938c1.957 0 3.792-.524 5.375-1.44Zm5.375-9.31h110.188a2.689 2.689 0 0 1 2.688 2.688v110.188c-1.957 0-3.792.524-5.375 1.441V29.563H33.497a10.693 10.693 0 0 0 1.44-5.375Z"></path></svg>