<svg data-v-bf17a7d6="" xmlns="http://www.w3.org/2000/svg" fill="none" viewBox="0 0 172 172"><g clip-path="url(#a)"><path fill="#F8BBD0" d="m22.844 67.523 63.828 30.235 60.469-30.235 20.156 16.797v7.39l-80.625 42.33-82.64-42.329v-7.39l18.812-16.798Z"></path><path fill="#E91E63" d="m166.414 112.184-15.39-8.492 15.391-8.495c3.4-1.877 5.429-5.316 5.428-9.2-.001-3.88-2.03-7.317-5.428-9.191l-15.394-8.495 15.393-8.496c3.399-1.876 5.428-5.313 5.428-9.195 0-3.882-2.029-7.32-5.428-9.195l-11.793-6.51a2.52 2.52 0 0 0-2.434 4.412l11.793 6.509a5.396 5.396 0 0 1 2.824 4.784 5.396 5.396 0 0 1-2.824 4.784l-70.3 38.801a15.815 15.815 0 0 1-15.36 0L8.02 55.404a5.394 5.394 0 0 1-2.824-4.784 5.395 5.395 0 0 1 2.824-4.784l70.3-38.802a15.796 15.796 0 0 1 15.36 0l49.687 27.425a2.52 2.52 0 0 0 2.434-4.411L96.116 2.624c-6.334-3.499-13.897-3.499-20.23 0l-70.3 38.8C2.186 43.302.158 46.739.158 50.62c0 3.882 2.029 7.32 5.428 9.195l15.393 8.496-15.394 8.494C2.187 78.68.157 82.116.156 85.998c0 3.883 2.029 7.322 5.429 9.199l15.39 8.495-15.39 8.493c-3.398 1.878-5.427 5.316-5.427 9.198 0 3.881 2.029 7.32 5.428 9.198l27.25 15.041a2.517 2.517 0 0 0 3.423-.989 2.518 2.518 0 0 0-.988-3.422l-27.25-15.04a5.402 5.402 0 0 1-2.825-4.788 5.402 5.402 0 0 1 2.825-4.788l18.169-10.026 49.693 27.429A20.9 20.9 0 0 0 86 136.621c3.475 0 6.95-.874 10.117-2.622l49.694-27.43 18.168 10.026a5.4 5.4 0 0 1 2.826 4.788 5.4 5.4 0 0 1-2.825 4.787l-70.3 38.797a15.818 15.818 0 0 1-15.363 0l-34.223-18.889a2.52 2.52 0 0 0-2.435 4.411l34.224 18.89A20.922 20.922 0 0 0 86 172a20.91 20.91 0 0 0 10.115-2.621l70.3-38.798c3.399-1.878 5.427-5.316 5.427-9.198.001-3.882-2.028-7.32-5.428-9.199Zm-72.732 17.404a15.814 15.814 0 0 1-15.364 0L8.02 90.786A5.398 5.398 0 0 1 5.195 86a5.392 5.392 0 0 1 2.824-4.782L26.192 71.19l49.693 27.427A20.899 20.899 0 0 0 86 101.237c3.474 0 6.948-.873 10.115-2.621l49.693-27.427 18.173 10.028A5.391 5.391 0 0 1 166.805 86a5.396 5.396 0 0 1-2.824 4.787l-70.3 38.802Z"></path></g><defs><clipPath id="a"><path fill="#fff" d="M0 0h172v172H0z"></path></clipPath></defs></svg>