<svg data-v-bf17a7d6="" xmlns="http://www.w3.org/2000/svg" viewBox="0 0 172 172"><g fill="none" stroke-miterlimit="10" font-family="none" font-size="none" font-weight="none" text-anchor="none" style="mix-blend-mode: normal;"><path d="M0 172V0h172v172z"></path><path fill="#e91e63" d="m69.808 15.008-35.492 19.77-19.308 35.777 3.015 40.422 24.38 32.242 38.02 13.807 39.565-8.995 28.555-28.941 8.491-39.708-14.269-37.869-.52-.377-31.999-23.617zm1 4.376 30.712 1.898-.352.478.545 1.848 1.798.672.73-.218.194-.101 1.15-1.537-.26-.907 3.384.21 2.73 2.015-.26.118-.387 1.89.31.688.127.177 1.705.907 1.747-.815.1-.504 24.398 18.015 13.387 35.5-6.173 28.882-.143-.185-1.923.009-1.15 1.545v.756l.042.21 1.159 1.545 1.184-.008-.966 4.485-26.791 27.16-2.209.504.134-.47-1.158-1.537-.723-.21-.218-.017-1.797.68-.538 1.848.437.58-28.362 6.45.11-.177.075-.201-.185-1.915-1.654-1-1.789.731-.386.647-.084.201.193 1.915.143.084-22.114-8.037.21-.076.513-1.856-1.184-1.528-.723-.202-.218-.017-1.789.697-.462 1.655-7.222-2.62v-.009l-.992-1.646-1.637-.151-16.957-22.432 1.134-1.546-.571-1.847-.613-.445-.193-.093-1.932.025-.386.53-2.444-3.242-.076-.991 1.865-.445.487-.58.1-.185.11-1.931-1.478-1.227-1.386.32-2.05-27.58 1.512-.883.227-1.915-.386-.646-.143-.168-1.528-.647-.076-1.024 17.049-31.579-.009 1.008.454.605.16.143 1.847.554 1.545-1.15v-1.924l-.453-.613-.151-.143-1.848-.554-.722.537.243-.445zm4.274 1.696-1.243 1.47.437 1.881.57.496.194.1 1.923.118 1.243-1.47-.436-1.873-.572-.487-.193-.117zm20.274 2.772-.722.21-.202.092-1.15 1.545.545 1.848 1.806.672.722-.21.193-.101 1.16-1.545-.546-1.848zM86 25.8a4.298 4.298 0 0 0-4.3 4.3c0 2.377 1.923 4.3 4.3 4.3s4.3-1.923 4.3-4.3-1.923-4.3-4.3-4.3zm-12.262 3.435h-.764l-.21.042-1.545 1.159.008 1.923 1.545 1.15.765-.008.21-.033 1.537-1.15v-1.932zm44.268 1.016-1.746.815-.395 1.89.327.68.118.185 1.705.907 1.747-.824.386-1.88-.32-.69-.125-.176zm-52.943.563h-.765l-.201.042-1.545 1.159v1.923l1.553 1.15h.756l.21-.041 1.545-1.15-.008-1.933zm-9.432 1.579-.21.042-1.537 1.159v1.923l1.546 1.15h.764l.21-.041 1.537-1.151v-1.932l-1.554-1.15zm-8.667 1.579-.218.042-1.537 1.159.008 1.923 1.546 1.15h.755l.21-.042 1.546-1.15-.017-1.932-1.545-1.15zm53.112 1.033-1.915.092-1.083 1.587.638 1.823.621.428.202.084 1.923-.092 1.075-1.604-.63-1.814-.63-.429zm-21.45 1.562-.621.428-.16.151-.613 1.823 1.083 1.587 1.924.084.621-.428.16-.151.621-1.823-1.092-1.587zm44.462.89-1.747.806-.387 1.89.32.689.125.176 1.697.907 1.747-.815.394-1.88-.327-.698-.118-.168zm-14.95 1.109-1.923.092-1.075 1.596.638 1.814.622.428.193.092 1.932-.092 1.075-1.604-.63-1.822-.63-.42zM90.754 41.42l-1.915.193-.991 1.646.067.748.067.21 1.302 1.427 1.915-.193.99-1.654-.075-.756-.059-.21zm25.447.706-1.923.1-1.075 1.588.638 1.822.621.42.193.092 1.924-.092 1.083-1.604-.63-1.814-.63-.42zm-43.857.63-.621.428-.16.15-.613 1.823 1.083 1.588 1.932.084.622-.437.15-.143.622-1.83-1.083-1.588zm64.324.495-.722.218-.194.093-1.159 1.545.546 1.848 1.806.672.722-.219.202-.1 1.15-1.538-.546-1.847zm-92.257.621-1.545 1.143-.009 1.931.454.613.16.143 1.847.546 1.545-1.15v-1.924l-.453-.604-.151-.152zM129 45.15a4.298 4.298 0 0 0-4.3 4.3c0 2.377 1.923 4.3 4.3 4.3s4.3-1.923 4.3-4.3-1.923-4.3-4.3-4.3zm-93.769 2.78-1.511 1.184-.202.73-.017.21.706 1.79 1.864.503 1.52-1.184.194-.73.016-.21-.714-1.798zm30.84 1.016-.63.428-.152.143-.621 1.823 1.083 1.595 1.932.076.621-.428.16-.152.613-1.822-1.083-1.596zm27.093.95-1.915.192-.991 1.646.076.765.058.201 1.294 1.42 1.923-.194.991-1.654-.076-.748-.058-.201zm-42.328.008-1.546 1.15-.008 1.923.462.613.017.026 1.847.546 1.546-1.151v-1.923l-.445-.613-.026-.017zM60.2 53.75a4.298 4.298 0 0 0-4.3 4.3c0 2.377 1.923 4.3 4.3 4.3s4.3-1.923 4.3-4.3-1.923-4.3-4.3-4.3zm60.057.773-.68.336-.176.134-.849 1.722.874 1.713 1.89.336.68-.344.176-.135.848-1.722-.873-1.713zm12.136 1.612-1.915.235-.949 1.68.084.747.067.21 1.336 1.395 1.914-.236.95-1.68-.093-.747-.059-.21zm-97.926.571-1.512 1.184-.201.731-.008.218.705 1.798 1.856.495 1.52-1.192.193-.723.026-.218-.714-1.789zm61.107 1.672-1.915.184-.99 1.655.075.756.059.201 1.293 1.42 1.923-.185.991-1.655-.075-.756-.059-.201zm17.645 1.452-.68.336-.168.135-.857 1.721.874 1.722 1.898.328.672-.345.176-.126.857-1.721-.874-1.722zm-42.26.538-1.915.185-1 1.646.722 1.789.647.386.202.084 1.914-.185 1-1.646-.714-1.789-.655-.394zm8.221 3.183-1.914.176-1 1.646.722 1.79.647.394.202.076 1.915-.177 1.007-1.646-.73-1.789-.647-.394zm55.808 1.016-1.906.235-.958 1.672.093.747.067.202 1.327 1.402 1.915-.243.957-1.672-.092-.755-.068-.202zm-28.807.571-.671.345-.168.126-.865 1.73.873 1.721 1.906.328.672-.344.177-.135.848-1.721-.873-1.714zm-52.456.093-1.923.109-.58.495-.134.168-.437 1.873 1.243 1.47 1.923-.11.58-.495.134-.168.437-1.873zm-20.022.252-1.512 1.192-.201.74-.009.21.706 1.788 1.856.504 1.52-1.193.193-.73.025-.21-.714-1.797zm53.708 1.243-1.923.184-1 1.646.723 1.79.646.394.202.076 1.915-.185.999-1.646-.722-1.79-.639-.385zm-26.522.268-1.319 1.411-.075.756.008.21.974 1.663 1.915.218 1.319-1.41.084-.748-.017-.218-.975-1.663zM98.9 68.8a4.298 4.298 0 0 0-4.3 4.3c0 2.377 1.923 4.3 4.3 4.3s4.3-1.923 4.3-4.3-1.923-4.3-4.3-4.3zm-50.802 3.217-1.923.109-.58.495-.143.168-.428 1.873 1.243 1.47 1.923-.11.58-.495.134-.168.437-1.873zm89.502.974-1.915.235-.957 1.663.092.756.059.21 1.344 1.385 1.906-.235.958-1.671-.101-.756-.059-.201zM32.947 74.276l-1.512 1.184-.201.73-.017.21.705 1.798 1.865.504 1.52-1.193.193-.73.017-.219-.714-1.789zm78.752.94-1.89.378-.83 1.739.906 1.705.689.319.21.059 1.89-.378.814-1.747-.907-1.705-.68-.32zm-50.222.58-1.319 1.402-.092.756.025.219.974 1.654 1.915.219 1.31-1.403.084-.756-.008-.218-.975-1.655zm58.721 1.713-1.88.387-.824 1.738.899 1.696.688.328.21.059 1.882-.387.831-1.746-.907-1.697-.689-.319zm-77.727 1.294-1.923.109-.58.495-.134.168-.437 1.873 1.243 1.47 1.923-.11.58-.495.134-.168.437-1.873zm47.82.075-.63.437-.15.143-.622 1.822 1.083 1.596 1.924.075.621-.42.16-.16.621-1.813-1.083-1.596zm57.614.1-.74.194-.192.084-1.21 1.503.479 1.865 1.78.73.731-.184.202-.093 1.21-1.503-.48-1.856zm-122.97.144-1.663.965-.218 1.915.386.664.134.16 1.772.755 1.663-.974.227-1.915-.386-.655-.143-.16zm114.815.428a4.298 4.298 0 0 0-4.3 4.3c0 2.377 1.923 4.3 4.3 4.3s4.3-1.923 4.3-4.3-1.923-4.3-4.3-4.3zm-11.036.26-1.89.378-.814 1.747.899 1.705.68.32.21.058 1.89-.386.823-1.739-.907-1.705-.68-.327zm-26.026 2.73-1.924.176-1.007 1.638.067.764.059.202 1.293 1.427 1.915-.176 1.008-1.638-.068-.755-.058-.202zm-40.632 2.05L60.738 86l-.084.747.016.219.975 1.663 1.914.21 1.31-1.403.093-.756-.017-.21-.974-1.671zm21.937.47-.622.428-.15.142-.622 1.823 1.083 1.596 1.923.084.63-.429.151-.15.622-1.823-1.084-1.596zM32.25 86a4.298 4.298 0 0 0-4.3 4.3c0 2.377 1.923 4.3 4.3 4.3s4.3-1.923 4.3-4.3-1.923-4.3-4.3-4.3zm103.267 4.2-1.923.108-.588.488-.143.167-.436 1.865 1.234 1.478 1.923-.1.58-.48.134-.167.454-1.882zm-30.495.84-1.923.175-1.008 1.638.076.764.059.202 1.285 1.428 1.915-.177 1.007-1.637-.067-.756-.05-.202zm38.062.033-1.923.008-1.142 1.545v.756l.033.21 1.168 1.545 1.923-.008 1.142-1.545v-.764l-.033-.202zm-65.382.16-.621.428-.151.15-.63 1.823 1.092 1.596 1.923.075.63-.428.15-.143.622-1.822-1.083-1.596zm-38.12.444-1.268 1.445.403 1.881.57.504.186.11 1.923.15 1.268-1.453-.403-1.89-.571-.495-.193-.109zm23.054 1.714-1.319 1.402-.076.748.009.218.974 1.663 1.915.21 1.318-1.403.084-.756-.016-.21-.975-1.662zM47.14 96.213l-1.268 1.444.403 1.881.571.504.185.11 1.923.15 1.269-1.452-.403-1.89-.572-.496-.193-.109zm-19.543.16-1.873.444-.487.58-.109.193-.1 1.915 1.477 1.243 1.873-.445.479-.588.11-.177.108-1.923zm102.251.587-1.923.1-.58.488-.134.168-.453 1.873 1.234 1.478 1.923-.11.588-.478.143-.168.437-1.873zm-58.428.453-.63.42-.15.16-.63 1.814 1.091 1.596 1.923.084.622-.437.16-.143.63-1.83-1.092-1.588zm-35.458 2.025-1.898.319-.873 1.713.126.747.067.202 1.394 1.327 1.906-.32.874-1.713-.126-.747-.076-.202zm71.404.1-1.915.177-1.008 1.637.067.765.059.201 1.285 1.428 1.915-.176 1.008-1.638-.068-.756-.058-.202zm37.305.202-1.931.008-1.142 1.546v.764l.033.21 1.168 1.537h1.923l1.142-1.546v-.764l-.034-.21zM54.7 100.748l-1.268 1.444.411 1.881.571.504.177.11 1.923.15 1.268-1.452-.403-1.89-.571-.495-.193-.11zm9.8 2.452a4.298 4.298 0 0 0-4.3 4.3c0 2.377 1.923 4.3 4.3 4.3s4.3-1.923 4.3-4.3-1.923-4.3-4.3-4.3zm59.688.512-1.924.11-.587.487-.135.168-.445 1.872 1.243 1.479 1.923-.11.571-.487.143-.168.445-1.873zm-85.244 4.023-1.899.31-.873 1.723.118.747.075.202 1.394 1.327 1.907-.32.873-1.713-.126-.756-.067-.201zm70.765.302-1.923.177-1 1.638.067.755.05.21 1.294 1.428 1.923-.176 1-1.638-.067-.756-.06-.21zm-34.131.563-1.899.37-.84 1.73.89 1.705.681.336.21.058 1.89-.37.84-1.738-.89-1.704-.68-.328zm42.94 1.865-1.914.109-.58.487-.142.168-.445 1.873 1.234 1.478 1.923-.1.588-.496.135-.16.445-1.873zm-34.458.512-1.89.37-.84 1.73.882 1.713.689.327.21.06 1.881-.362.84-1.738-.882-1.714-.688-.327zm-27.891.11-.68.318-.177.126-.899 1.705.824 1.739 1.898.386.68-.336.168-.118.907-1.704-.832-1.739zm36.382 2.267-1.89.37-.84 1.738.882 1.705.68.336.21.05 1.898-.361.832-1.73-.89-1.714-.68-.336zm-22.97 1.94-1.764.764-.436 1.881.302.689.118.185 1.67.949 1.773-.773.437-1.881-.303-.689-.126-.176zm69.682.327-.218.009-1.647.982-.21 1.915 1.411 1.31.748.084.218-.017 1.663-.982.202-1.915-1.411-1.31zm-38.221.118-1.898.361-.84 1.738.89 1.714.68.327.202.05 1.898-.36.84-1.73-.89-1.714-.68-.327zm-66.138.193-1.923.025-1.134 1.554.571 1.84.605.444.201.101 1.923-.033 1.134-1.554-.57-1.84-.614-.445zm76.896.168a4.298 4.298 0 0 0-4.3 4.3c0 2.377 1.923 4.3 4.3 4.3s4.3-1.923 4.3-4.3-1.923-4.3-4.3-4.3zm-62.795.1-.689.328-.176.126-.899 1.705.832 1.739 1.88.378.681-.32.185-.126.89-1.704-.814-1.739zm81.465.034-.219.017-1.654.983-.202 1.915 1.411 1.31.748.084.218-.017 1.655-.983.21-1.914-1.411-1.31zm-8.793.622-.21.017-1.663.982-.202 1.915 1.411 1.31.756.084.21-.017 1.654-.982.21-1.915-1.41-1.31zM43 118.25a4.298 4.298 0 0 0-4.3 4.3c0 2.377 1.923 4.3 4.3 4.3s4.3-1.923 4.3-4.3-1.923-4.3-4.3-4.3zm31.477 4.367-1.763.773-.437 1.873.302.697.118.176 1.68.95 1.763-.765.437-1.881-.302-.689-.118-.185zm-23.112 2.495-1.923.1-1.067 1.604.638 1.814.622.42.193.084 1.932-.092 1.075-1.596-.639-1.822-.63-.42zm50.768 1.226-.655.37-.168.134-.79 1.755.933 1.68 1.915.268.663-.37.168-.134.781-1.763-.94-1.688zm13.026 1.419-1.914.168-1.017 1.646.068.748.05.218 1.293 1.428 1.915-.168 1.016-1.638-.067-.756-.059-.201zm-55.723.907-1.923.1-1.075 1.597.638 1.822.63.412.201.092 1.923-.092 1.075-1.605-.638-1.822-.638-.42zm-16.251.95-1.294 1.435-.075.748.017.218.999 1.646 1.915.185 1.302-1.42.067-.764-.017-.21-1-1.646zm36.197.335-1.772.764-.437 1.882.303.697.126.176 1.67.949 1.765-.773.436-1.873-.302-.688-.118-.177zm15.923 1.965-.663.37-.168.134-.781 1.755.94 1.68 1.907.26.655-.36.168-.143.798-1.756-.94-1.688zm-27.798.303-1.924.092-1.075 1.596.639 1.822.63.42.193.084 1.923-.092 1.075-1.596-.638-1.823-.63-.428zm8.07 3.544-1.931.092-1.075 1.604.638 1.823.63.411.202.093 1.923-.101 1.075-1.596-.638-1.822-.63-.412zm41.892.504-1.915.168-1.016 1.637.067.765.05.21 1.285 1.436 1.924-.177 1.016-1.637-.067-.756-.06-.21zM86 137.6a4.298 4.298 0 0 0-4.3 4.3c0 2.377 1.923 4.3 4.3 4.3s4.3-1.923 4.3-4.3-1.923-4.3-4.3-4.3zm10.095 2.956-1.797.672-.538 1.848 1.16 1.545.73.202.218.025 1.797-.672.53-1.856-1.151-1.537-.73-.21zm-31.04.773-1.798.705-.504 1.848 1.176 1.529.73.201.21.017 1.798-.697.512-1.856-1.176-1.52-.73-.202zm39.808.134-1.797.68-.538 1.857 1.16 1.537.73.21.21.016 1.805-.672.53-1.847-1.16-1.546-.722-.201zm-31.024.68-1.806.698-.512 1.856 1.184 1.528.73.202.21.017 1.798-.698.512-1.856-1.175-1.52-.731-.201z"></path></g></svg>