<svg data-v-bf17a7d6="" xmlns="http://www.w3.org/2000/svg" fill="none" viewBox="0 0 172 172"><path fill="#F8BBD0" d="M12.83 14.218H43l5.895 36.064-36.064 5.202V14.218Zm65.194-1.388h38.492v17.686l5.202 17.686-19.766-4.855H83.919L78.024 12.83ZM49.935 48.548l32.597-6.242 4.855 20.46 5.202 17.686H74.903l-17.685 2.774-2.428-7.63-4.855-27.048Zm74.557 4.162 34.677 5.201V73.17l-1.734 20.46-10.75-2.774-14.217-1.734-2.081-3.468-5.895-32.943ZM15.258 93.629l39.532-9.016-2.427 27.395-4.855 11.444-13.87 3.814-13.178 2.081-6.936-2.081 1.734-33.637Zm80.105-13.524 34.331 8.322-3.121 19.766-1.734 10.75h-13.178l-10.403-2.08-12.484-2.081 6.589-34.677Zm27.048 43.347L156.742 129v29.129h-40.919l6.588-34.677Zm-73.169-1.041 37.452-7.629-6.416 32.25-1.734 10.75H47.508l-5.028-4.161 6.762-31.21Z"></path><path fill="#E91E63" d="M129.084 0v5.049h37.867v37.867H172V0h-42.916ZM0 0v42.916h5.049V5.049h37.867V0H0Zm5.049 73.378H0v5.049h5.049v-5.05Zm0 10.097H0v5.05h5.049v-5.05Zm0 10.098H0v5.05h5.049v-5.05ZM172 73.378h-5.049v5.049H172v-5.05Zm0 10.097h-5.049v5.05H172v-5.05Zm0 10.098h-5.049v5.05H172v-5.05ZM5.049 166.951v-37.867H0V172h42.916v-5.049H5.049Zm161.902-37.867v37.867h-37.867V172H172v-42.916h-5.049Z"></path><path fill="#E91E63" d="M11.108 11.108v149.784h149.785V11.108H11.108Zm101.845 5.049c.245 13.637 2.463 22.113 5.01 29.438-7.768-2.7-16.822-5.035-31.963-5.035-.192 0-.377.002-.566.003-1.94-6.26-3.418-13.53-3.616-24.407h31.135ZM95.201 82.123c11.739.9 18.757 3.51 26.103 6.243a251.27 251.27 0 0 0 5.021 1.827c-.421 13.454-2.872 21.216-5.633 28.747-7.411-2.716-15.52-5.304-28.894-5.888 1.972-6.769 3.458-14.973 3.458-27.052 0-1.34-.02-2.628-.055-3.877Zm27.863 1.51c-7.508-2.793-15.233-5.664-28.113-6.584-.92-12.88-3.79-20.605-6.585-28.114-.412-1.108-.822-2.21-1.223-3.32 16.18.13 24.577 3.011 33.078 6.165 3.153 8.5 6.034 16.898 6.164 33.077a364.605 364.605 0 0 1-3.321-1.224Zm-63.995 1.8c6.734-2.086 14.629-3.64 26.931-3.64 1.442 0 2.817.023 4.143.064.04 1.326.064 2.701.064 4.143 0 12.302-1.554 20.196-3.64 26.931-.19-.001-.375-.003-.567-.003-15.141 0-24.195 2.334-31.963 5.035 2.7-7.768 5.035-16.822 5.035-31.963 0-.192-.002-.377-.003-.567Zm24.565-34.736c2.733 7.345 5.343 14.363 6.242 26.102A137.178 137.178 0 0 0 86 76.744c-12.08 0-20.284 1.486-27.053 3.458-.584-13.374-3.17-21.483-5.887-28.895 7.53-2.76 15.292-5.21 28.746-5.632a255.342 255.342 0 0 0 1.828 5.022Zm-29.676 31.11a251.56 251.56 0 0 0-5.022 1.827c-8.639 3.215-16.83 6.257-32.78 6.548V59.047c15.362-.275 24.171-3.056 32.169-5.987 2.761 7.53 5.211 15.292 5.633 28.747Zm22.81-65.65c.193 10.713 1.603 18.242 3.434 24.528-13.374.584-21.483 3.17-28.895 5.888-2.873-7.837-5.409-15.924-5.673-30.416h31.135Zm-60.611 0h24.428c.276 15.36 3.056 24.17 5.987 32.168-7.837 2.873-15.923 5.41-30.415 5.673V16.157Zm0 79.074c16.89-.303 25.86-3.635 34.54-6.865 1.108-.412 2.21-.822 3.32-1.224-.13 16.18-3.012 24.578-6.165 33.078-8.255 3.063-16.414 5.867-31.695 6.146V95.231Zm24.428 60.612H16.157v-24.428c13.638-.245 22.113-2.463 29.438-5.01-2.547 7.325-4.765 15.8-5.01 29.438Zm5.048 0c.28-15.282 3.084-23.441 6.147-31.696 8.5-3.153 16.898-6.034 33.078-6.164-.402 1.11-.812 2.212-1.224 3.32-3.23 8.681-6.562 17.649-6.865 34.54H45.633Zm36.185 0c.29-15.95 3.333-24.139 6.548-32.779a250.97 250.97 0 0 0 1.828-5.022c13.454.422 21.215 2.872 28.746 5.633-2.931 7.998-5.711 16.807-5.987 32.168H81.818Zm74.025 0h-37.842c.264-14.492 2.801-22.579 5.674-30.415 7.998 2.931 16.807 5.711 32.168 5.987v24.428Zm0-29.477c-14.492-.264-22.578-2.8-30.415-5.673 2.716-7.412 5.303-15.521 5.887-28.895 6.286 1.831 13.814 3.241 24.528 3.433v31.135Zm0-36.184c-10.876-.198-18.145-1.676-24.406-3.616.001-.19.003-.374.003-.566 0-15.141-2.335-24.195-5.035-31.963 7.325 2.547 15.8 4.766 29.438 5.01v31.135Zm0-36.184c-15.281-.278-23.44-3.083-31.695-6.145-3.062-8.256-5.868-16.414-6.147-31.697h37.842V54ZM88.524 166.951h-5.049V172h5.05v-5.049Zm10.098 0h-5.049V172h5.05v-5.049Zm-20.195 0h-5.05V172h5.05v-5.049ZM98.622 0h-5.049v5.049h5.05V0ZM88.524 0h-5.049v5.049h5.05V0ZM78.427 0h-5.05v5.049h5.05V0Z"></path></svg>